ormat : AVI
Format/Info : Audio Video Interleave
File size : 1.18 GiB
Duration : 1h 38mn
Overall bit rate : 1 717 Kbps
Writing library : VirtualDub build 32839/release

Video
ID : 0
Format : MPEG-4 Visual
Format profile : Advanced Simple@L5
Format settings, BVOP : Yes
Format settings, QPel : No
Format settings, GMC : No warppoints
Format settings, Matrix : Custom
Codec ID : XVID
Codec ID/Hint : XviD
Duration : 1h 38mn
Bit rate : 1 579 Kbps
Width : 688 pixels
Height : 384 pixels
Display aspect ratio : 16:9
Frame rate : 25.000 fps
Color space : YUV
Chroma subsampling : 4:2:0
Bit depth : 8 bits
Scan type : Progressive
Bits/(Pixel*Frame) : 0.239
Stream size : 1.09 GiB (92%)
Writing library : XviD 1.2.1 (UTC 2008-12-04)

Audio
ID : 1
Format : MPEG Audio
Format version : Version 1
Format profile : Layer 3
Codec ID : 55
Codec ID/Hint : MP3
Duration : 1h 38mn
Bit rate mode : Constant
Bit rate : 128 Kbps
Channel(s) : 2 channels
Sampling rate : 44.1 KHz
Stream size : 90.4 MiB (7%)
Alignment : Split accross interleaves
Interleave, duration : 40 ms (1.00 video frame)
Interleave, preload duration : 500 ms



 
http://www.imdb.com/title/tt1411238/




Details
Official Sites:
Paramount [United States] | Add/edit official sites »
Country:
USA
Language:
English
Release Date:
25 February 2011 (UK) See more »
Also Known As:
Sexo Sem Compromisso See more »
Filming Locations:
1260 Channel Dr, Santa Barbara, California, USA

Storyline

A guy and girl try to keep their relationship strictly physical, but it's not long before they learn that they want something more.

Users: 6.2/10 (4,121 votes) 42 reviews | Critics: 106 reviews Metascore: 51/100 (based on 35 reviews from Metacritic.com)


Director:
Ivan Reitman
Writers:
Elizabeth Meriwether (screenplay), Michael Samonek (story),
Stars:
Natalie Portman, Ashton Kutcher and Kevin Kline 